<svg width="873" height="605" viewBox="0 0 873 605" fill="none" xmlns="http://www.w3.org/2000/svg">
<g clip-path="url(#clip0_107_42)">
<mask id="mask0_107_42" style="mask-type:luminance" maskUnits="userSpaceOnUse" x="0" y="0" width="873" height="605">
<path d="M872.405 197.053L190.298 0L-0.000138462 407.782L682.107 604.836L872.405 197.053Z" fill="white"/>
</mask>
<g mask="url(#mask0_107_42)">
<path d="M872.405 197.053L190.298 0L-0.000138462 407.782L682.107 604.836L872.405 197.053Z" fill="white"/>
<path d="M694.825 157.064L836.05 197.862C846.662 200.928 851.478 211.527 846.807 221.537L683.996 570.417C679.325 580.427 666.936 586.056 656.324 582.99L515.099 542.192L694.825 157.064Z" fill="#5F72A5"/>
<path d="M327.68 39.6882L190.298 0L-123.483 672.388L13.8994 712.076L327.68 39.6882Z" fill="white"/>
<path d="M269.754 112.42L175.604 85.2213C170.298 83.6885 164.103 86.503 161.768 91.5078L152.464 111.444C150.129 116.448 152.537 121.748 157.843 123.281L251.993 150.48C257.298 152.013 263.493 149.198 265.829 144.193L275.132 124.257C277.468 119.253 275.06 113.953 269.754 112.42Z" fill="#2D3958"/>
<path d="M202.211 51.7738L198.66 50.7481L203.735 39.8739L207.078 40.8397L206.781 42.0372C207.932 41.3085 209.5 41.1445 210.999 41.5775C213.742 42.3701 214.562 44.4826 213.232 47.3316L210.096 54.0519L206.545 53.0261L209.306 47.1105C209.945 45.7404 209.555 44.6156 208.333 44.2625C206.926 43.8562 205.621 44.4664 204.992 45.8148L202.211 51.7738ZM215.531 55.9429C213.087 55.2368 212.195 53.4488 213.189 51.3174C214.123 49.3166 216.2 48.5099 219.059 49.1135L222.398 49.8068L222.479 49.6328C222.977 48.5671 222.549 47.8018 221.281 47.4355C219.782 47.0025 218.721 47.3131 218.265 48.2918L215.313 47.4392C216.46 44.9816 219.356 43.9917 222.653 44.9442C225.996 45.91 227.065 48.2179 225.613 51.3279L222.65 57.6784L219.514 56.7725L219.953 55.2705C219.117 56.1644 217.261 56.4424 215.531 55.9429ZM217.934 53.8232C219.294 54.2162 220.534 53.8586 221.112 52.619L221.386 52.0318L219.517 51.6645C217.911 51.3487 217.205 51.515 216.88 52.211C216.515 52.9939 216.85 53.5102 217.934 53.8232ZM228.286 59.3067L224.735 58.2809L229.81 47.4067L233.13 48.3659L232.833 49.5634C233.765 48.9688 235.229 48.5774 236.889 49.057C238.619 49.5566 239.37 50.6375 239.501 51.9834C240.638 51.0039 242.354 50.6357 244.014 51.1153C246.988 51.9745 247.703 54.032 246.546 56.5113L243.227 63.623L239.676 62.5972L242.559 56.4207C243.198 55.0505 242.742 54.1783 241.612 53.8519C240.597 53.5588 239.339 53.7877 238.477 55.6363L235.757 61.4649L232.206 60.4391L235.088 54.2625C235.717 52.9141 235.284 52.0485 234.154 51.7221C233.14 51.4291 231.859 51.6513 231.006 53.4781L228.286 59.3067ZM250.522 66.0513C247.04 65.0455 245.667 61.9338 247.23 58.5845C248.813 55.1918 252.34 53.5206 255.822 54.5264C259.442 55.5722 260.656 58.465 259.002 62.01L258.606 62.8582L250.216 60.4838C249.754 61.9791 250.292 62.8998 251.86 63.3527C253.197 63.7391 254.356 63.5554 254.975 62.8458L258.226 63.785C256.684 66.0791 253.681 66.9638 250.522 66.0513ZM254.576 57.2516C253.17 56.8453 252.112 57.206 251.226 58.431L256.022 59.8165C256.56 58.6638 256.006 57.6646 254.576 57.2516Z" fill="#2D3958"/>
<path d="M172.567 113.352C170.369 112.717 169.712 110.799 170.747 108.581C171.789 106.348 173.916 105.153 176.207 105.815C177.267 106.121 178.009 106.812 178.154 107.66L180.272 103.122L182.132 103.66L177.098 114.447L175.376 113.949L175.774 112.797C174.927 113.491 173.72 113.685 172.567 113.352ZM173.74 111.848C175.047 112.225 176.305 111.585 176.907 110.295C177.509 109.004 177.083 107.861 175.777 107.484C174.47 107.106 173.245 107.789 172.649 109.065C172.054 110.341 172.433 111.47 173.74 111.848ZM180.916 115.764C179.302 115.298 178.731 114.129 179.36 112.78C179.976 111.461 181.376 110.928 183.236 111.317L185.585 111.814L185.659 111.655C186.113 110.684 185.681 110.114 184.728 109.839C183.621 109.519 182.803 109.777 182.451 110.531L180.853 110.069C181.576 108.518 183.403 107.893 185.463 108.488C187.507 109.079 188.28 110.487 187.353 112.473L185.323 116.823L183.679 116.348L184.034 115.25C183.366 115.896 182.1 116.106 180.916 115.764ZM182.153 114.607C183.306 114.941 184.349 114.501 184.863 113.399L185.039 113.022L183.401 112.681C182.186 112.445 181.571 112.679 181.3 113.259C180.996 113.911 181.308 114.363 182.153 114.607ZM187.289 114.923L189.072 115.438C188.797 116.066 189.106 116.599 189.967 116.848C190.843 117.101 191.475 116.905 191.719 116.384C191.888 116.021 191.81 115.702 191.201 115.362L189.975 114.662C188.742 113.977 188.365 113.177 188.9 112.032C189.556 110.625 191.209 110.149 192.962 110.655C194.668 111.148 195.388 112.409 194.753 113.805L192.97 113.29C193.239 112.676 192.991 112.161 192.269 111.952C191.531 111.739 190.952 111.933 190.702 112.47C190.512 112.876 190.728 113.235 191.306 113.566L192.532 114.266C193.68 114.91 194.068 115.647 193.554 116.749C192.877 118.199 191.151 118.721 189.276 118.179C187.385 117.633 186.633 116.329 187.289 114.923ZM195.541 119.775L193.666 119.233L198.7 108.446L200.591 108.992L198.466 113.545C199.268 112.987 200.369 112.795 201.46 113.11C203.336 113.652 203.798 115.052 202.932 116.908L200.875 121.316L199 120.774L200.861 116.787C201.422 115.583 201.063 114.821 200.11 114.546C198.926 114.204 197.869 114.787 197.368 115.86L195.541 119.775ZM204.147 122.261L202.41 121.759L207.444 110.972L209.32 111.514L207.141 116.183C208.005 115.527 209.243 115.342 210.396 115.675C212.563 116.301 213.141 118.278 212.085 120.54C211.057 122.743 208.917 123.853 206.734 123.222C205.597 122.894 204.851 122.135 204.791 121.18L204.147 122.261ZM205.986 118.695C205.384 119.986 205.816 121.114 207.108 121.487C208.43 121.869 209.633 121.197 210.228 119.921C210.824 118.645 210.466 117.505 209.144 117.123C207.853 116.75 206.588 117.405 205.986 118.695ZM212.852 120.695C213.894 118.463 216.318 117.419 218.67 118.098C221.021 118.777 222.01 120.807 220.968 123.04C219.926 125.273 217.503 126.317 215.151 125.637C212.799 124.958 211.81 122.928 212.852 120.695ZM214.728 121.237C214.119 122.542 214.598 123.684 215.889 124.057C217.18 124.43 218.484 123.803 219.093 122.498C219.702 121.193 219.223 120.051 217.932 119.678C216.641 119.305 215.337 119.932 214.728 121.237ZM222.641 127.818C221.027 127.351 220.456 126.183 221.085 124.834C221.701 123.515 223.101 122.982 224.961 123.371L227.31 123.868L227.384 123.709C227.838 122.737 227.406 122.168 226.453 121.893C225.346 121.573 224.528 121.831 224.176 122.585L222.577 122.123C223.301 120.571 225.128 119.947 227.188 120.542C229.232 121.133 230.005 122.541 229.078 124.527L227.048 128.877L225.404 128.402L225.759 127.303C225.091 127.95 223.825 128.16 222.641 127.818ZM223.878 126.661C225.031 126.994 226.074 126.555 226.588 125.453L226.764 125.076L225.126 124.735C223.911 124.499 223.296 124.733 223.025 125.312C222.721 125.965 223.033 126.417 223.878 126.661ZM236.704 123.506L235.94 125.144L235.248 124.944C233.895 124.553 232.732 124.99 232.082 126.382L230.459 129.862L228.583 129.32L231.919 122.172L233.687 122.683L233.307 123.758C233.961 123.141 234.907 122.871 235.922 123.164C236.183 123.24 236.431 123.344 236.704 123.506ZM237.088 131.991C234.89 131.356 234.232 129.438 235.267 127.22C236.309 124.987 238.437 123.792 240.727 124.454C241.788 124.76 242.529 125.452 242.674 126.3L244.792 121.761L246.652 122.299L241.618 133.086L239.897 132.589L240.295 131.437C239.448 132.13 238.241 132.324 237.088 131.991ZM238.26 130.487C239.567 130.865 240.825 130.224 241.428 128.934C242.03 127.644 241.604 126.5 240.297 126.123C238.991 125.745 237.765 126.428 237.17 127.704C236.574 128.98 236.954 130.11 238.26 130.487Z" fill="#F8F3EF"/>
<path d="M150.936 150.697L152.719 151.212C152.443 151.84 152.753 152.373 153.613 152.622C154.49 152.875 155.122 152.679 155.365 152.157C155.535 151.795 155.456 151.476 154.848 151.136L153.622 150.436C152.389 149.751 152.012 148.951 152.547 147.805C153.203 146.399 154.856 145.922 156.608 146.428C158.315 146.921 159.034 148.182 158.4 149.579L156.617 149.064C156.886 148.45 156.638 147.934 155.916 147.726C155.178 147.513 154.599 147.707 154.348 148.244C154.159 148.65 154.375 149.008 154.953 149.34L156.179 150.039C157.326 150.683 157.715 151.421 157.201 152.523C156.524 153.973 154.798 154.494 152.923 153.952C151.032 153.406 150.28 152.103 150.936 150.697ZM155.764 158.327L160.655 147.844L162.393 148.346L162.008 149.469C162.855 148.776 164.077 148.586 165.23 148.919C167.367 149.536 168.098 151.409 167.049 153.657C166.007 155.89 163.958 157.14 161.698 156.488C160.561 156.159 159.773 155.454 159.635 154.592L157.639 158.869L155.764 158.327ZM160.875 151.972C160.273 153.262 160.706 154.391 161.997 154.764C163.319 155.146 164.522 154.473 165.118 153.197C165.713 151.922 165.355 150.782 164.033 150.4C162.742 150.027 161.477 150.681 160.875 151.972ZM169.832 158.837C167.572 158.185 166.713 156.176 167.748 153.957C168.797 151.71 171.073 150.607 173.302 151.251C175.577 151.908 176.352 153.761 175.31 155.994L175.06 156.53L169.335 154.893C168.885 156.194 169.294 157.037 170.539 157.396C171.569 157.694 172.421 157.512 172.955 156.893L174.691 157.395C173.638 158.867 171.815 159.41 169.832 158.837ZM172.641 152.705C171.534 152.386 170.594 152.756 169.909 153.775L173.721 154.877C174.181 153.891 173.763 153.03 172.641 152.705ZM176.647 160.592L174.772 160.051L178.114 152.888L179.851 153.39L179.572 154.362C180.387 153.775 181.505 153.621 182.535 153.918C184.441 154.469 184.904 155.87 184.038 157.725L181.981 162.133L180.106 161.591L181.966 157.604C182.528 156.401 182.168 155.639 181.2 155.359C180.047 155.026 178.988 155.576 178.447 156.736L176.647 160.592ZM186.548 163.667C184.35 163.032 183.693 161.114 184.728 158.896C185.77 156.663 187.898 155.468 190.188 156.129C191.248 156.436 191.99 157.127 192.135 157.975L194.253 153.437L196.113 153.974L191.079 164.761L189.357 164.264L189.755 163.112C188.908 163.805 187.701 164 186.548 163.667ZM187.721 162.163C189.028 162.54 190.286 161.9 190.888 160.609C191.49 159.319 191.064 158.176 189.758 157.798C188.451 157.421 187.226 158.103 186.63 159.379C186.035 160.655 186.415 161.785 187.721 162.163ZM197.676 156.91C197.03 156.724 196.746 156.099 197.023 155.504C197.301 154.91 198.025 154.592 198.67 154.779C199.285 154.956 199.576 155.567 199.298 156.161C199.021 156.756 198.29 157.088 197.676 156.91ZM192.726 165.237L196.068 158.075L197.943 158.616L194.601 165.779L192.726 165.237ZM198.106 166.792L196.231 166.25L199.573 159.087L201.31 159.589L201.031 160.562C201.846 159.974 202.964 159.82 203.994 160.118C205.9 160.668 206.363 162.069 205.497 163.925L203.44 168.333L201.565 167.791L203.426 163.804C203.987 162.6 203.628 161.838 202.659 161.558C201.506 161.225 200.447 161.775 199.906 162.935L198.106 166.792ZM206.291 164.911C207.265 162.823 209.441 161.675 211.608 162.301C212.745 162.629 213.427 163.336 213.514 164.234L214.082 163.279L215.819 163.781L212.646 170.581C211.529 172.973 209.311 174.027 206.851 173.316C204.668 172.686 203.725 171.08 204.388 169.1L206.263 169.642C205.953 170.605 206.449 171.374 207.602 171.707C208.893 172.08 210.082 171.551 210.637 170.362L211.192 169.173C210.404 169.703 209.27 169.852 208.179 169.537C206.027 168.915 205.323 166.984 206.291 164.911ZM208.202 165.414C207.64 166.617 208.035 167.751 209.265 168.107C210.556 168.48 211.755 167.855 212.336 166.608C212.905 165.39 212.513 164.323 211.207 163.945C209.962 163.586 208.75 164.239 208.202 165.414Z" fill="#2D3958"/>
<path d="M134.482 186.329C135.456 184.241 137.632 183.092 139.8 183.718C140.937 184.047 141.619 184.754 141.706 185.651L142.274 184.696L144.011 185.198L140.837 191.998C139.721 194.391 137.502 195.444 135.043 194.734C132.86 194.103 131.917 192.498 132.58 190.518L134.455 191.059C134.145 192.023 134.641 192.791 135.794 193.124C137.085 193.497 138.274 192.969 138.828 191.78L139.383 190.591C138.596 191.12 137.462 191.27 136.37 190.955C134.218 190.333 133.515 188.402 134.482 186.329ZM136.393 186.831C135.832 188.035 136.227 189.169 137.456 189.524C138.748 189.897 139.946 189.273 140.528 188.026C141.096 186.808 140.705 185.741 139.398 185.363C138.153 185.003 136.941 185.657 136.393 186.831ZM143.534 189.108C144.576 186.875 146.999 185.831 149.351 186.511C151.703 187.19 152.692 189.22 151.65 191.453C150.608 193.686 148.184 194.729 145.833 194.05C143.481 193.371 142.492 191.341 143.534 189.108ZM145.409 189.65C144.8 190.955 145.279 192.097 146.57 192.47C147.861 192.843 149.166 192.216 149.774 190.911C150.383 189.606 149.905 188.464 148.613 188.091C147.322 187.718 146.018 188.345 145.409 189.65ZM153.323 196.23C151.709 195.764 151.137 194.595 151.767 193.247C152.382 191.928 153.783 191.394 155.642 191.783L157.991 192.281L158.066 192.122C158.519 191.15 158.087 190.581 157.134 190.306C156.027 189.986 155.209 190.243 154.858 190.997L153.259 190.535C153.983 188.984 155.809 188.36 157.869 188.955C159.913 189.546 160.687 190.954 159.76 192.94L157.73 197.29L156.085 196.814L156.441 195.716C155.773 196.362 154.506 196.572 153.323 196.23ZM154.56 195.074C155.713 195.407 156.755 194.968 157.269 193.866L157.445 193.489L155.808 193.147C154.592 192.911 153.977 193.145 153.707 193.725C153.402 194.378 153.714 194.83 154.56 195.074ZM161.155 198.279L159.295 197.742L164.329 186.955L166.189 187.492L161.155 198.279ZM163.246 196.415L165.029 196.93C164.753 197.558 165.063 198.092 165.923 198.34C166.8 198.593 167.432 198.398 167.675 197.876C167.844 197.513 167.766 197.195 167.158 196.854L165.932 196.154C164.699 195.469 164.322 194.669 164.857 193.524C165.513 192.118 167.166 191.641 168.918 192.147C170.625 192.64 171.344 193.901 170.71 195.297L168.927 194.782C169.196 194.169 168.948 193.653 168.226 193.444C167.488 193.231 166.909 193.426 166.658 193.962C166.469 194.368 166.685 194.727 167.263 195.058L168.489 195.758C169.636 196.402 170.025 197.139 169.511 198.241C168.834 199.691 167.108 200.213 165.233 199.671C163.342 199.125 162.59 197.822 163.246 196.415Z" fill="#2D3958"/>
<path d="M708.275 160.95L334.557 52.9866C328.19 51.1472 320.757 54.5247 317.954 60.5303L148.377 423.91C145.574 429.915 148.464 436.275 154.831 438.114L528.549 546.077C534.916 547.917 542.349 544.539 545.152 538.534L714.729 175.154C717.532 169.149 714.642 162.789 708.275 160.95Z" fill="#F8F3EF"/>
</g>
</g>
<defs>
<clipPath id="clip0_107_42">
<rect width="710" height="450" rx="28" transform="matrix(0.960714 0.27754 -0.422886 0.906183 190.298 0)" fill="white"/>
</clipPath>
</defs>
</svg>
