<svg width="873" height="605" viewBox="0 0 873 605" fill="none" xmlns="http://www.w3.org/2000/svg">
<g clip-path="url(#clip0_147_237)">
<mask id="mask0_147_237" style="mask-type:luminance" maskUnits="userSpaceOnUse" x="0" y="0" width="873" height="605">
<path d="M872.406 197.053L190.299 0L0.000105679 407.782L682.107 604.836L872.406 197.053Z" fill="white"/>
</mask>
<g mask="url(#mask0_147_237)">
<path d="M872.406 197.053L190.299 0L0.000105679 407.782L682.107 604.836L872.406 197.053Z" fill="white"/>
<g filter="url(#filter0_ddddd_147_237)">
<path d="M694.825 157.064L836.05 197.862C846.662 200.928 851.478 211.527 846.807 221.537L683.996 570.417C679.325 580.427 666.936 586.056 656.324 582.99L515.099 542.192L694.825 157.064Z" fill="#5F72A5"/>
</g>
<path d="M327.681 39.6882L190.299 0L0.000105679 407.782L137.382 447.471L327.681 39.6882Z" fill="white"/>
<path d="M269.754 112.42L175.604 85.2213C170.298 83.6885 164.104 86.503 161.768 91.5078L152.464 111.444C150.129 116.448 152.537 121.748 157.843 123.281L251.993 150.48C257.299 152.013 263.493 149.198 265.829 144.193L275.132 124.257C277.468 119.253 275.06 113.953 269.754 112.42Z" fill="#2D3958"/>
<path d="M205.651 55.3178C200.855 53.9323 198.807 49.4247 200.769 45.22C202.934 40.5803 207.627 38.448 212.516 39.8601C213.653 40.1887 214.642 40.8363 215.365 41.6046L218.653 34.5581L224.187 36.1567L217.678 50.1047C215.607 54.5414 210.57 56.7388 205.651 55.3178ZM207.938 50.4171C209.69 50.9234 211.44 50.014 212.157 48.4771C212.861 46.9692 212.288 45.3558 210.536 44.8496C208.784 44.3433 207.02 45.2817 206.316 46.7896C205.599 48.3265 206.185 49.9109 207.938 50.4171ZM223.478 60.4679C218.99 59.1712 217.57 54.8122 219.546 50.5786C221.508 46.3739 226.79 43.951 231.586 45.3365C236.505 46.7575 238.525 51.0266 236.454 55.4633L233.058 62.7417L227.831 61.2319L228.332 60.159C226.902 60.8317 225.261 60.983 223.478 60.4679ZM226.687 55.8337C228.44 56.3399 230.203 55.4015 230.907 53.8936C231.624 52.3567 231.051 50.7433 229.299 50.2371C227.547 49.7309 225.783 50.6693 225.066 52.2062C224.362 53.7141 224.935 55.3275 226.687 55.8337ZM246.379 48.3923C244.565 47.8683 243.721 46.0122 244.52 44.3013C245.318 42.5905 247.488 41.6047 249.302 42.1287C251.115 42.6527 251.959 44.5088 251.16 46.2197C250.362 47.9306 248.192 48.9163 246.379 48.3923ZM242.895 49.1299L248.428 50.7285L241.662 65.2274L236.128 63.6288L242.895 49.1299ZM250.895 67.8946L245.361 66.2959L255.239 45.1275L260.773 46.7261L255.184 58.7022L256.26 59.0131C256.491 58.8166 256.723 58.6202 257.002 58.4705L262.825 54.8877L269.374 56.7794L260.084 62.2568L262.577 71.2695L256.09 69.3955L254.634 63.5451C254.575 63.2977 254.529 63.0213 254.532 62.7917L253.425 62.472L250.895 67.8946ZM270.382 74.0179C265.586 72.6324 263.551 68.0956 265.527 63.8619C267.489 59.6572 272.772 57.2345 277.568 58.62C282.363 60.0055 284.398 64.5421 282.436 68.7468C280.46 72.9805 275.178 75.4033 270.382 74.0179ZM272.669 69.1172C274.421 69.6234 276.185 68.685 276.888 67.1771C277.606 65.6403 277.033 64.0269 275.281 63.5206C273.528 63.0144 271.765 63.9528 271.047 65.4897C270.344 66.9976 270.916 68.611 272.669 69.1172Z" fill="#EA5757"/>
<path d="M172.567 113.352C170.369 112.717 169.712 110.799 170.747 108.581C171.789 106.348 173.917 105.153 176.207 105.815C177.268 106.121 178.009 106.812 178.154 107.66L180.272 103.122L182.132 103.66L177.098 114.447L175.376 113.949L175.774 112.797C174.927 113.491 173.72 113.685 172.567 113.352ZM173.74 111.848C175.047 112.225 176.305 111.585 176.907 110.295C177.509 109.004 177.084 107.861 175.777 107.484C174.47 107.106 173.245 107.789 172.649 109.065C172.054 110.341 172.434 111.47 173.74 111.848ZM180.916 115.764C179.302 115.298 178.731 114.129 179.361 112.78C179.976 111.461 181.376 110.928 183.236 111.317L185.585 111.814L185.66 111.655C186.113 110.684 185.681 110.114 184.728 109.839C183.621 109.519 182.803 109.777 182.451 110.531L180.853 110.069C181.577 108.518 183.403 107.893 185.463 108.488C187.507 109.079 188.281 110.487 187.354 112.473L185.324 116.823L183.679 116.348L184.035 115.25C183.367 115.896 182.1 116.106 180.916 115.764ZM182.154 114.607C183.307 114.941 184.349 114.501 184.863 113.399L185.039 113.022L183.402 112.681C182.186 112.445 181.571 112.679 181.3 113.259C180.996 113.911 181.308 114.363 182.154 114.607ZM187.289 114.923L189.072 115.438C188.797 116.066 189.106 116.599 189.967 116.848C190.843 117.101 191.475 116.905 191.719 116.384C191.888 116.021 191.81 115.702 191.201 115.362L189.975 114.662C188.742 113.977 188.366 113.177 188.9 112.032C189.557 110.625 191.209 110.149 192.962 110.655C194.668 111.148 195.388 112.409 194.754 113.805L192.971 113.29C193.239 112.676 192.992 112.161 192.269 111.952C191.531 111.739 190.952 111.933 190.702 112.47C190.512 112.876 190.729 113.235 191.307 113.566L192.533 114.266C193.68 114.91 194.068 115.647 193.554 116.749C192.878 118.199 191.151 118.721 189.276 118.179C187.385 117.633 186.633 116.329 187.289 114.923ZM195.542 119.775L193.666 119.233L198.7 108.446L200.591 108.992L198.466 113.545C199.268 112.987 200.369 112.795 201.46 113.11C203.336 113.652 203.799 115.052 202.932 116.908L200.876 121.316L199 120.774L200.861 116.787C201.423 115.583 201.063 114.821 200.11 114.546C198.926 114.204 197.869 114.787 197.369 115.86L195.542 119.775ZM204.148 122.261L202.411 121.759L207.445 110.972L209.32 111.514L207.141 116.183C208.005 115.527 209.243 115.342 210.396 115.675C212.563 116.301 213.141 118.278 212.086 120.54C211.057 122.743 208.917 123.853 206.734 123.222C205.597 122.894 204.852 122.135 204.792 121.18L204.148 122.261ZM205.986 118.695C205.384 119.986 205.817 121.114 207.108 121.487C208.43 121.869 209.633 121.197 210.229 119.921C210.824 118.645 210.466 117.505 209.144 117.123C207.853 116.75 206.588 117.405 205.986 118.695ZM212.853 120.695C213.895 118.463 216.318 117.419 218.67 118.098C221.022 118.777 222.011 120.807 220.969 123.04C219.927 125.273 217.503 126.317 215.151 125.637C212.8 124.958 211.811 122.928 212.853 120.695ZM214.728 121.237C214.119 122.542 214.598 123.684 215.889 124.057C217.18 124.43 218.484 123.803 219.093 122.498C219.702 121.193 219.224 120.051 217.932 119.678C216.641 119.305 215.337 119.932 214.728 121.237ZM222.641 127.818C221.027 127.351 220.456 126.183 221.086 124.834C221.701 123.515 223.101 122.982 224.961 123.371L227.31 123.868L227.385 123.709C227.838 122.737 227.406 122.168 226.453 121.893C225.346 121.573 224.528 121.831 224.176 122.585L222.578 122.123C223.302 120.571 225.128 119.947 227.188 120.542C229.232 121.133 230.005 122.541 229.079 124.527L227.049 128.877L225.404 128.402L225.76 127.303C225.092 127.95 223.825 128.16 222.641 127.818ZM223.879 126.661C225.032 126.994 226.074 126.555 226.588 125.453L226.764 125.076L225.127 124.735C223.911 124.499 223.296 124.733 223.025 125.312C222.721 125.965 223.033 126.417 223.879 126.661ZM236.705 123.506L235.94 125.144L235.248 124.944C233.896 124.553 232.732 124.99 232.083 126.382L230.459 129.862L228.584 129.32L231.919 122.172L233.687 122.683L233.307 123.758C233.962 123.141 234.907 122.871 235.922 123.164C236.183 123.24 236.431 123.344 236.705 123.506ZM237.088 131.991C234.89 131.356 234.232 129.438 235.267 127.22C236.309 124.987 238.437 123.792 240.727 124.454C241.788 124.76 242.53 125.452 242.675 126.3L244.792 121.761L246.652 122.299L241.618 133.086L239.897 132.589L240.295 131.437C239.448 132.13 238.241 132.324 237.088 131.991ZM238.261 130.487C239.567 130.865 240.826 130.224 241.428 128.934C242.03 127.644 241.604 126.5 240.297 126.123C238.991 125.745 237.765 126.428 237.17 127.704C236.574 128.98 236.954 130.11 238.261 130.487Z" fill="#F8F3EF"/>
<path d="M150.936 150.697L152.719 151.212C152.444 151.84 152.753 152.373 153.614 152.622C154.49 152.875 155.122 152.679 155.366 152.157C155.535 151.795 155.457 151.476 154.848 151.136L153.622 150.436C152.389 149.751 152.013 148.951 152.547 147.805C153.203 146.399 154.856 145.922 156.609 146.428C158.315 146.921 159.035 148.182 158.401 149.579L156.617 149.064C156.886 148.45 156.639 147.934 155.916 147.726C155.178 147.513 154.599 147.707 154.349 148.244C154.159 148.65 154.376 149.008 154.953 149.34L156.179 150.039C157.327 150.683 157.715 151.421 157.201 152.523C156.524 153.973 154.798 154.494 152.923 153.952C151.032 153.406 150.28 152.103 150.936 150.697ZM155.764 158.327L160.656 147.844L162.393 148.346L162.008 149.469C162.855 148.776 164.078 148.586 165.23 148.919C167.367 149.536 168.098 151.409 167.049 153.657C166.007 155.89 163.958 157.14 161.698 156.488C160.561 156.159 159.773 155.454 159.635 154.592L157.639 158.869L155.764 158.327ZM160.875 151.972C160.273 153.262 160.706 154.391 161.997 154.764C163.319 155.146 164.522 154.473 165.118 153.197C165.713 151.922 165.356 150.782 164.034 150.4C162.742 150.027 161.477 150.681 160.875 151.972ZM169.832 158.837C167.572 158.185 166.713 156.176 167.748 153.957C168.797 151.71 171.074 150.607 173.302 151.251C175.577 151.908 176.353 153.761 175.311 155.994L175.06 156.53L169.335 154.893C168.885 156.194 169.294 157.037 170.539 157.396C171.569 157.694 172.422 157.512 172.955 156.893L174.692 157.395C173.638 158.867 171.815 159.41 169.832 158.837ZM172.641 152.705C171.535 152.386 170.594 152.756 169.909 153.775L173.721 154.877C174.181 153.891 173.763 153.03 172.641 152.705ZM176.647 160.592L174.772 160.051L178.114 152.888L179.851 153.39L179.572 154.362C180.387 153.775 181.505 153.621 182.535 153.918C184.441 154.469 184.904 155.87 184.038 157.725L181.981 162.133L180.106 161.591L181.966 157.604C182.528 156.401 182.168 155.639 181.2 155.359C180.047 155.026 178.988 155.576 178.447 156.736L176.647 160.592ZM186.549 163.667C184.35 163.032 183.693 161.114 184.728 158.896C185.77 156.663 187.898 155.468 190.188 156.129C191.249 156.436 191.99 157.127 192.135 157.975L194.253 153.437L196.113 153.974L191.079 164.761L189.357 164.264L189.755 163.112C188.908 163.805 187.701 164 186.549 163.667ZM187.721 162.163C189.028 162.54 190.286 161.9 190.888 160.609C191.491 159.319 191.065 158.176 189.758 157.798C188.451 157.421 187.226 158.103 186.63 159.379C186.035 160.655 186.415 161.785 187.721 162.163ZM197.676 156.91C197.03 156.724 196.746 156.099 197.024 155.504C197.301 154.91 198.025 154.592 198.67 154.779C199.285 154.956 199.576 155.567 199.299 156.161C199.021 156.756 198.291 157.088 197.676 156.91ZM192.726 165.237L196.068 158.075L197.944 158.616L194.601 165.779L192.726 165.237ZM198.106 166.792L196.231 166.25L199.574 159.087L201.311 159.589L201.031 160.562C201.846 159.974 202.965 159.82 203.995 160.118C205.901 160.668 206.363 162.069 205.497 163.925L203.44 168.333L201.565 167.791L203.426 163.804C203.987 162.6 203.628 161.838 202.659 161.558C201.507 161.225 200.448 161.775 199.906 162.935L198.106 166.792ZM206.291 164.911C207.265 162.823 209.441 161.675 211.608 162.301C212.746 162.629 213.427 163.336 213.515 164.234L214.082 163.279L215.819 163.781L212.646 170.581C211.529 172.973 209.311 174.027 206.851 173.316C204.669 172.686 203.726 171.08 204.388 169.1L206.264 169.642C205.953 170.605 206.45 171.374 207.602 171.707C208.894 172.08 210.082 171.551 210.637 170.362L211.192 169.173C210.404 169.703 209.27 169.852 208.179 169.537C206.027 168.915 205.323 166.984 206.291 164.911ZM208.202 165.414C207.64 166.617 208.035 167.751 209.265 168.107C210.556 168.48 211.755 167.855 212.337 166.608C212.905 165.39 212.514 164.323 211.207 163.945C209.962 163.586 208.75 164.239 208.202 165.414Z" fill="#2D3958"/>
<path d="M134.482 186.329C135.456 184.241 137.632 183.092 139.8 183.718C140.937 184.047 141.619 184.754 141.706 185.651L142.274 184.696L144.011 185.198L140.837 191.998C139.721 194.391 137.502 195.444 135.043 194.734C132.86 194.103 131.917 192.498 132.58 190.518L134.455 191.059C134.145 192.023 134.641 192.791 135.794 193.124C137.085 193.497 138.274 192.969 138.828 191.78L139.383 190.591C138.596 191.12 137.462 191.27 136.37 190.955C134.218 190.333 133.515 188.402 134.482 186.329ZM136.393 186.831C135.832 188.035 136.227 189.169 137.456 189.524C138.748 189.897 139.946 189.273 140.528 188.026C141.096 186.808 140.705 185.741 139.398 185.363C138.153 185.003 136.941 185.657 136.393 186.831ZM143.534 189.108C144.576 186.875 146.999 185.831 149.351 186.511C151.703 187.19 152.692 189.22 151.65 191.453C150.608 193.686 148.184 194.729 145.833 194.05C143.481 193.371 142.492 191.341 143.534 189.108ZM145.409 189.65C144.8 190.955 145.279 192.097 146.57 192.47C147.861 192.843 149.166 192.216 149.774 190.911C150.383 189.606 149.905 188.464 148.613 188.091C147.322 187.718 146.018 188.345 145.409 189.65ZM153.323 196.23C151.709 195.764 151.137 194.595 151.767 193.247C152.382 191.928 153.783 191.394 155.642 191.783L157.991 192.281L158.066 192.122C158.519 191.15 158.087 190.581 157.134 190.306C156.027 189.986 155.209 190.243 154.858 190.997L153.259 190.535C153.983 188.984 155.809 188.36 157.869 188.955C159.913 189.546 160.687 190.954 159.76 192.94L157.73 197.29L156.085 196.814L156.441 195.716C155.773 196.362 154.506 196.572 153.323 196.23ZM154.56 195.074C155.713 195.407 156.755 194.968 157.269 193.866L157.445 193.489L155.808 193.147C154.592 192.911 153.977 193.145 153.707 193.725C153.402 194.378 153.714 194.83 154.56 195.074ZM161.155 198.279L159.295 197.742L164.329 186.955L166.189 187.492L161.155 198.279ZM163.246 196.415L165.029 196.93C164.753 197.558 165.063 198.092 165.923 198.34C166.8 198.593 167.432 198.398 167.675 197.876C167.844 197.513 167.766 197.195 167.158 196.854L165.932 196.154C164.699 195.469 164.322 194.669 164.857 193.524C165.513 192.118 167.166 191.641 168.918 192.147C170.625 192.64 171.344 193.901 170.71 195.297L168.927 194.782C169.196 194.169 168.948 193.653 168.226 193.444C167.488 193.231 166.909 193.426 166.658 193.962C166.469 194.368 166.685 194.727 167.263 195.058L168.489 195.758C169.636 196.402 170.025 197.139 169.511 198.241C168.834 199.691 167.108 200.213 165.233 199.671C163.342 199.125 162.59 197.822 163.246 196.415Z" fill="#2D3958"/>
<path d="M82.1816 304.008L80.3063 303.467L83.6488 296.304L85.3858 296.806L85.1064 297.778C85.9213 297.191 87.0398 297.037 88.0697 297.334C89.9757 297.885 90.4385 299.286 89.5724 301.142L87.5155 305.549L85.6402 305.008L87.5009 301.02C88.0625 299.817 87.7029 299.055 86.7345 298.775C85.5816 298.442 84.5227 298.992 83.9814 300.152L82.1816 304.008ZM90.2829 302.268C91.3249 300.035 93.7483 298.991 96.1001 299.671C98.452 300.35 99.441 302.38 98.399 304.613C97.357 306.846 94.9336 307.89 92.5817 307.21C90.2299 306.531 89.2409 304.501 90.2829 302.268ZM92.1582 302.81C91.5492 304.115 92.028 305.257 93.3192 305.63C94.6104 306.003 95.9147 305.376 96.5237 304.071C97.1326 302.766 96.6538 301.624 95.3626 301.251C94.0714 300.878 92.7671 301.505 92.1582 302.81ZM100.407 309.274L98.532 308.732L101.184 303.048L99.7241 302.626L100.414 301.148L101.875 301.569L102.916 299.337L104.792 299.878L103.75 302.111L105.225 302.537L104.535 304.016L103.06 303.59L100.407 309.274ZM107.691 301.621C107.046 301.434 106.762 300.809 107.039 300.215C107.317 299.62 108.04 299.303 108.686 299.49C109.301 299.667 109.592 300.278 109.314 300.872C109.037 301.467 108.306 301.799 107.691 301.621ZM102.741 309.948L106.084 302.785L107.959 303.327L104.617 310.49L102.741 309.948ZM111.55 312.493L114.202 306.809L111.097 305.912L108.445 311.596L106.585 311.058L109.237 305.375L108.146 305.059L108.836 303.58L109.927 303.896L110.333 303.026C111.24 301.083 112.695 300.582 114.232 301.026C114.524 301.11 114.871 301.227 115.167 301.378L114.463 302.886L113.802 302.695C112.957 302.451 112.525 302.853 112.193 303.563L111.787 304.433L116.768 305.872L113.425 313.034L111.55 312.493ZM116.513 304.137C115.883 303.955 115.608 303.348 115.885 302.754C116.156 302.174 116.864 301.852 117.495 302.034C118.109 302.212 118.385 302.818 118.114 303.398C117.837 303.992 117.128 304.314 116.513 304.137ZM116.283 309.78C117.319 307.561 119.602 306.444 121.846 307.092C123.921 307.692 124.828 309.188 124.223 310.971L122.347 310.429C122.511 309.555 122.077 308.952 121.185 308.695C119.986 308.348 118.788 308.973 118.159 310.321C117.529 311.67 117.875 312.724 119.074 313.07C120.011 313.341 120.875 313.097 121.441 312.372L123.331 312.918C122.323 314.519 120.312 315.238 118.329 314.665C116.024 313.999 115.221 312.056 116.283 309.78ZM125.367 316.698C123.753 316.232 123.182 315.063 123.811 313.715C124.427 312.395 125.827 311.862 127.686 312.251L130.036 312.749L130.11 312.589C130.563 311.618 130.131 311.049 129.178 310.773C128.071 310.454 127.253 310.711 126.902 311.465L125.303 311.003C126.027 309.452 127.853 308.828 129.913 309.423C131.957 310.013 132.731 311.421 131.804 313.408L129.774 317.757L128.129 317.282L128.485 316.184C127.817 316.83 126.55 317.04 125.367 316.698ZM126.604 315.542C127.757 315.875 128.799 315.435 129.313 314.334L129.489 313.957L127.852 313.615C126.636 313.379 126.021 313.613 125.751 314.193C125.446 314.845 125.759 315.297 126.604 315.542ZM133.786 318.916L131.911 318.375L134.563 312.691L133.103 312.269L133.793 310.79L135.253 311.212L136.295 308.979L138.171 309.521L137.129 311.754L138.604 312.18L137.914 313.659L136.438 313.233L133.786 318.916ZM141.07 311.264C140.425 311.077 140.141 310.452 140.418 309.858C140.695 309.263 141.419 308.946 142.065 309.132C142.68 309.31 142.97 309.92 142.693 310.515C142.416 311.109 141.685 311.441 141.07 311.264ZM136.12 319.591L139.463 312.428L141.338 312.97L137.995 320.132L136.12 319.591ZM140.858 316.879C141.9 314.646 144.323 313.602 146.675 314.281C149.027 314.961 150.016 316.991 148.974 319.223C147.932 321.456 145.509 322.5 143.157 321.821C140.805 321.141 139.816 319.112 140.858 316.879ZM142.733 317.421C142.124 318.725 142.603 319.867 143.894 320.24C145.185 320.613 146.49 319.987 147.099 318.682C147.708 317.377 147.229 316.235 145.938 315.862C144.646 315.489 143.342 316.116 142.733 317.421ZM150.35 323.702L148.475 323.16L151.818 315.997L153.554 316.499L153.275 317.471C154.09 316.884 155.208 316.73 156.238 317.028C158.144 317.578 158.607 318.979 157.741 320.835L155.684 325.242L153.809 324.701L155.669 320.713C156.231 319.51 155.871 318.748 154.903 318.468C153.75 318.135 152.691 318.685 152.15 319.845L150.35 323.702ZM157.56 323.316L159.343 323.831C159.067 324.459 159.376 324.993 160.237 325.241C161.113 325.495 161.745 325.299 161.989 324.777C162.158 324.414 162.08 324.096 161.472 323.755L160.246 323.056C159.013 322.37 158.636 321.57 159.171 320.425C159.827 319.019 161.48 318.542 163.232 319.048C164.938 319.541 165.658 320.802 165.024 322.198L163.241 321.683C163.51 321.07 163.262 320.554 162.54 320.345C161.802 320.132 161.222 320.327 160.972 320.863C160.783 321.269 160.999 321.628 161.577 321.959L162.803 322.659C163.95 323.303 164.339 324.041 163.824 325.143C163.148 326.592 161.422 327.114 159.546 326.572C157.656 326.026 156.903 324.723 157.56 323.316Z" fill="#2D3958"/>
<path d="M65.0902 334.652L66.8733 335.167C66.5977 335.795 66.9069 336.328 67.7677 336.577C68.6439 336.83 69.2761 336.634 69.5196 336.112C69.6888 335.75 69.6108 335.431 69.0021 335.091L67.7761 334.391C66.5434 333.706 66.1666 332.906 66.7011 331.761C67.3574 330.354 69.0103 329.877 70.7627 330.384C72.4689 330.877 73.1887 332.138 72.5545 333.534L70.7715 333.019C71.0403 332.405 70.7925 331.89 70.0701 331.681C69.3323 331.468 68.753 331.662 68.5026 332.199C68.3132 332.605 68.5296 332.963 69.1075 333.295L70.3335 333.995C71.4808 334.639 71.8692 335.376 71.355 336.478C70.6784 337.928 68.9523 338.449 67.077 337.908C65.1863 337.361 64.4339 336.058 65.0902 334.652ZM74.7764 340.132C72.5168 339.479 71.6575 337.47 72.6927 335.252C73.7415 333.005 76.018 331.902 78.2468 332.546C80.5219 333.203 81.297 335.056 80.255 337.289L80.0046 337.825L74.2796 336.188C73.8293 337.489 74.2387 338.331 75.4838 338.691C76.5137 338.988 77.366 338.807 77.8992 338.188L79.6361 338.689C78.5826 340.162 76.7594 340.705 74.7764 340.132ZM77.5857 334C76.4788 333.68 75.5386 334.05 74.8535 335.07L78.6657 336.171C79.1258 335.185 78.7077 334.324 77.5857 334ZM82.2236 342.069L80.3483 341.528L83.0006 335.844L81.5403 335.422L82.2305 333.943L83.6908 334.365L84.7328 332.132L86.6081 332.674L85.5661 334.907L87.0417 335.333L86.3516 336.812L84.8759 336.386L82.2236 342.069ZM87.3502 343.55L85.4748 343.009L88.1272 337.325L86.6669 336.903L87.357 335.424L88.8173 335.846L89.8593 333.613L91.7346 334.155L90.6926 336.388L92.1683 336.814L91.4781 338.293L90.0025 337.867L87.3502 343.55ZM94.6342 335.898C93.9886 335.711 93.7046 335.086 93.982 334.492C94.2595 333.897 94.9832 333.58 95.6288 333.766C96.2437 333.944 96.5344 334.555 96.257 335.149C95.9796 335.743 95.2491 336.075 94.6342 335.898ZM89.6842 344.225L93.0267 337.062L94.902 337.604L91.5595 344.767L89.6842 344.225ZM95.065 345.779L93.1897 345.237L96.5321 338.075L98.2691 338.577L97.9898 339.549C98.8046 338.962 99.9231 338.808 100.953 339.105C102.859 339.656 103.322 341.057 102.456 342.912L100.399 347.32L98.5235 346.778L100.384 342.791C100.946 341.588 100.586 340.826 99.6179 340.546C98.465 340.213 97.4061 340.763 96.8648 341.922L95.065 345.779ZM103.249 343.899C104.224 341.811 106.399 340.662 108.567 341.288C109.704 341.617 110.386 342.324 110.473 343.221L111.041 342.266L112.778 342.768L109.604 349.568C108.488 351.96 106.269 353.014 103.81 352.304C101.627 351.673 100.684 350.068 101.347 348.088L103.222 348.629C102.912 349.593 103.408 350.361 104.561 350.694C105.852 351.067 107.041 350.539 107.596 349.35L108.15 348.161C107.363 348.69 106.229 348.84 105.137 348.524C102.985 347.903 102.282 345.972 103.249 343.899ZM105.16 344.401C104.599 345.605 104.994 346.739 106.224 347.094C107.515 347.467 108.713 346.843 109.295 345.596C109.864 344.378 109.472 343.31 108.165 342.933C106.92 342.573 105.708 343.227 105.16 344.401ZM111.499 348.059L113.282 348.574C113.007 349.202 113.316 349.735 114.177 349.984C115.053 350.237 115.685 350.041 115.929 349.519C116.098 349.157 116.02 348.838 115.411 348.498L114.185 347.798C112.952 347.113 112.576 346.313 113.11 345.168C113.767 343.761 115.419 343.284 117.172 343.791C118.878 344.284 119.598 345.545 118.964 346.941L117.181 346.426C117.449 345.812 117.202 345.297 116.479 345.088C115.741 344.875 115.162 345.069 114.912 345.606C114.722 346.012 114.939 346.371 115.517 346.702L116.743 347.402C117.89 348.046 118.278 348.783 117.764 349.885C117.088 351.335 115.361 351.857 113.486 351.315C111.595 350.769 110.843 349.465 111.499 348.059Z" fill="#2D3958"/>
<path d="M51.1844 371.365C49.5704 370.899 48.9994 369.73 49.6286 368.382C50.2444 367.063 51.6445 366.529 53.5039 366.918L55.8533 367.416L55.9277 367.257C56.381 366.285 55.9489 365.716 54.9958 365.441C53.8891 365.121 53.0713 365.378 52.7194 366.132L51.1208 365.671C51.8448 364.119 53.6711 363.495 55.7309 364.09C57.7753 364.681 58.5486 366.089 57.6216 368.075L55.5917 372.425L53.947 371.95L54.3026 370.851C53.6347 371.497 52.368 371.707 51.1844 371.365ZM52.4218 370.209C53.5746 370.542 54.6169 370.103 55.1312 369.001L55.3071 368.624L53.6697 368.283C52.4541 368.047 51.8392 368.28 51.5685 368.86C51.264 369.513 51.5763 369.965 52.4218 370.209ZM58.3588 369.144C59.394 366.925 61.6773 365.808 63.9215 366.456C65.9967 367.056 66.9034 368.552 66.298 370.335L64.4227 369.793C64.5864 368.919 64.1524 368.316 63.2609 368.059C62.0619 367.712 60.8634 368.337 60.2341 369.685C59.6049 371.034 59.9503 372.088 61.1492 372.434C62.0869 372.705 62.9509 372.461 63.5161 371.736L65.4067 372.282C64.3981 373.883 62.3879 374.602 60.405 374.029C58.0992 373.363 57.2965 371.42 58.3588 369.144ZM66.5027 371.496C67.5379 369.278 69.8212 368.161 72.0654 368.809C74.1406 369.408 75.0473 370.904 74.4419 372.687L72.5666 372.146C72.7303 371.272 72.2963 370.669 71.4048 370.411C70.2058 370.065 69.0073 370.69 68.378 372.038C67.7488 373.386 68.0941 374.441 69.2931 374.787C70.2308 375.058 71.0947 374.814 71.6599 374.089L73.5506 374.635C72.5419 376.236 70.5318 376.955 68.5488 376.382C66.2431 375.716 65.4404 373.773 66.5027 371.496ZM74.6466 373.849C75.6886 371.616 78.112 370.572 80.4638 371.252C82.8157 371.931 83.8047 373.961 82.7627 376.194C81.7207 378.426 79.2973 379.47 76.9454 378.791C74.5936 378.112 73.6046 376.082 74.6466 373.849ZM76.5219 374.391C75.9129 375.696 76.3917 376.838 77.6829 377.211C78.9741 377.584 80.2784 376.957 80.8874 375.652C81.4963 374.347 81.0175 373.205 79.7263 372.832C78.4351 372.459 77.1308 373.086 76.5219 374.391ZM90.5754 374.403L92.4508 374.945L89.1083 382.107L87.3713 381.605L87.6795 380.609C86.9004 381.157 85.7001 381.337 84.6856 381.044C82.9332 380.537 82.4243 379.123 83.243 377.369L85.3338 372.889L87.2091 373.431L85.4093 377.287C84.7733 378.65 85.0849 379.365 86.1302 379.667C87.3138 380.009 88.187 379.521 88.823 378.158L90.5754 374.403ZM92.6132 383.12L90.7378 382.578L94.0803 375.416L95.8173 375.917L95.538 376.89C96.3528 376.302 97.4713 376.148 98.5012 376.446C100.407 376.997 100.87 378.397 100.004 380.253L97.947 384.661L96.0717 384.119L97.9324 380.132C98.494 378.928 98.1344 378.166 97.166 377.887C96.0132 377.553 94.9543 378.103 94.413 379.263L92.6132 383.12ZM102.064 385.85L100.189 385.308L102.841 379.625L101.381 379.203L102.071 377.724L103.532 378.146L104.574 375.913L106.449 376.455L105.407 378.688L106.883 379.114L106.192 380.593L104.717 380.167L102.064 385.85Z" fill="#2D3958"/>
<path d="M84.4939 265.856L190.653 296.524" stroke="#D0D0D0" stroke-width="1.5" stroke-linecap="round"/>
<g filter="url(#filter1_ddddd_147_237)">
<path d="M708.275 160.95L334.558 52.9866C328.191 51.1472 320.757 54.5247 317.954 60.5303L148.377 423.91C145.575 429.915 148.464 436.275 154.831 438.114L528.549 546.077C534.916 547.917 542.35 544.539 545.152 538.534L714.729 175.154C717.532 169.149 714.643 162.789 708.275 160.95Z" fill="#F8F3EF"/>
<path d="M334.09 91.9288L331.131 91.0739L337.508 77.4087L340.486 78.2691L337.898 83.8149C338.858 83.2077 340.164 83.071 341.413 83.4318C343.7 84.0923 344.383 85.8527 343.275 88.2269L340.661 93.8271L337.702 92.9723L340.003 88.0427C340.536 86.9009 340.21 85.9635 339.191 85.6693C338.019 85.3307 336.932 85.8392 336.407 86.9629L334.09 91.9288ZM346.747 95.8526C343.846 95.0144 342.701 92.4213 344.003 89.6303C345.323 86.803 348.262 85.4103 351.163 86.2485C354.18 87.12 355.192 89.5307 353.813 92.4849L353.483 93.1917L346.492 91.213C346.106 92.4591 346.555 93.2263 347.862 93.6038C348.976 93.9257 349.942 93.7727 350.457 93.1813L353.167 93.964C351.882 95.8758 349.379 96.613 346.747 95.8526ZM350.125 88.5195C348.953 88.1809 348.072 88.4815 347.334 89.5023L351.33 90.6569C351.778 89.6964 351.317 88.8637 350.125 88.5195ZM356.026 98.2658L353.067 97.411L359.444 83.7458L362.403 84.6006L356.026 98.2658ZM360.82 99.6507L357.861 98.7959L364.238 85.1307L367.197 85.9855L360.82 99.6507ZM364.26 95.4822C365.596 92.6187 368.722 91.3415 371.796 92.2296C374.851 93.1122 376.183 95.6772 374.847 98.5407C373.511 101.404 370.394 102.663 367.339 101.781C364.264 100.893 362.924 98.3458 364.26 95.4822ZM367.247 96.3245C366.604 97.7019 367.122 98.88 368.506 99.2797C369.87 99.6738 371.234 99.0396 371.877 97.6622C372.512 96.3029 371.993 95.1248 370.629 94.7306C369.245 94.331 367.881 94.9652 367.247 96.3245ZM382.638 105.954L379.679 105.099L382.825 98.3568L381 97.8295L382.082 95.5097L383.908 96.037L385.219 93.2278L388.178 94.0827L386.867 96.8918L388.692 97.4192L387.609 99.739L385.784 99.2117L382.638 105.954ZM388.367 107.609L385.408 106.754L391.786 93.0888L394.764 93.9492L392.176 99.4951C393.135 98.8878 394.442 98.7511 395.691 99.1119C397.977 99.7725 398.66 101.533 397.552 103.907L394.939 109.507L391.98 108.652L394.28 103.723C394.813 102.581 394.487 101.644 393.469 101.349C392.297 101.011 391.209 101.519 390.685 102.643L388.367 107.609ZM401.024 111.533C398.123 110.695 396.978 108.101 398.281 105.31C399.6 102.483 402.54 101.091 405.441 101.929C408.458 102.8 409.469 105.211 408.091 108.165L407.761 108.872L400.769 106.893C400.384 108.139 400.833 108.906 402.139 109.284C403.254 109.606 404.219 109.453 404.735 108.861L407.444 109.644C406.159 111.556 403.657 112.293 401.024 111.533ZM404.403 104.2C403.231 103.861 402.349 104.162 401.611 105.183L405.608 106.337C406.056 105.377 405.594 104.544 404.403 104.2ZM418.183 105.939L416.957 108.567L416.015 108.295C414.324 107.806 412.976 108.219 412.139 110.013L410.303 113.946L407.344 113.091L411.565 104.047L414.351 104.852L413.879 106.238C414.697 105.466 415.821 105.113 417.109 105.484C417.454 105.584 417.822 105.732 418.183 105.939ZM419.132 116.764C416.231 115.926 415.086 113.333 416.388 110.542C417.708 107.714 420.647 106.322 423.548 107.16C426.565 108.031 427.577 110.442 426.198 113.396L425.868 114.103L418.877 112.124C418.491 113.37 418.94 114.138 420.247 114.515C421.361 114.837 422.327 114.684 422.842 114.093L425.552 114.875C424.267 116.787 421.764 117.524 419.132 116.764ZM422.51 109.431C421.338 109.092 420.457 109.393 419.719 110.414L423.715 111.568C424.164 110.608 423.702 109.775 422.51 109.431ZM428.914 118.274C428.102 120.013 426.189 120.983 424.298 120.642L424.764 119.645C425.8 119.76 426.721 119.47 427.125 118.744C426.937 118.772 426.728 118.753 426.517 118.692C425.614 118.431 425.218 117.597 425.59 116.799C426.056 115.802 427.022 115.32 428.021 115.609C429.135 115.931 429.498 117.023 428.914 118.274ZM445.706 113.89L448.665 114.745L444.436 123.806L441.65 123.002L441.931 121.931C440.989 122.502 439.561 122.665 438.408 122.332C436.217 121.7 435.515 119.934 436.555 117.704L439.211 112.014L442.17 112.868L439.988 117.544C439.294 119.03 439.528 119.838 440.738 120.188C442.007 120.554 442.813 120.088 443.507 118.602L445.706 113.89ZM446.729 121.219L449.534 122.03C449.277 122.675 449.599 123.2 450.502 123.461C451.424 123.727 451.99 123.541 452.21 123.07C452.337 122.798 452.319 122.464 451.675 122.114L450.077 121.24C448.478 120.367 447.952 119.393 448.696 117.798C449.576 115.913 451.793 115.319 454.099 115.986C456.328 116.629 457.309 118.311 456.455 120.142L453.65 119.331C453.937 118.715 453.728 118.182 453.017 117.976C452.345 117.782 451.77 117.986 451.542 118.476C451.347 118.893 451.602 119.234 452.207 119.573L453.825 120.452C455.248 121.233 455.791 122.171 455.115 123.621C454.21 125.561 451.912 126.233 449.414 125.512C446.877 124.779 445.875 123.05 446.729 121.219ZM459.279 128.362C456.378 127.524 455.233 124.931 456.536 122.14C457.855 119.312 460.794 117.92 463.696 118.758C466.712 119.629 467.724 122.04 466.346 124.994L466.016 125.701L459.024 123.722C458.639 124.968 459.087 125.736 460.394 126.113C461.508 126.435 462.474 126.282 462.99 125.691L465.699 126.473C464.414 128.385 461.912 129.122 459.279 128.362ZM462.658 121.029C461.486 120.69 460.604 120.991 459.866 122.012L463.863 123.166C464.311 122.206 463.849 121.373 462.658 121.029ZM476.438 122.768L475.211 125.396L474.27 125.124C472.579 124.635 471.231 125.048 470.394 126.842L468.558 130.775L465.599 129.92L469.82 120.877L472.606 121.681L472.134 123.067C472.951 122.296 474.076 121.942 475.363 122.314C475.709 122.414 476.077 122.561 476.438 122.768Z" fill="#2D3958"/>
<path d="M340.55 299.465L250.243 273.376C245.998 272.15 241.043 274.402 239.174 278.405L176.587 412.521C174.719 416.524 176.645 420.764 180.89 421.99L271.197 448.079C275.442 449.305 280.397 447.054 282.266 443.05L344.853 308.935C346.721 304.931 344.795 300.691 340.55 299.465Z" fill="white"/>
<path d="M257.337 367.977C275.908 373.342 297.589 363.491 305.763 345.975C313.937 328.458 305.51 309.909 286.939 304.544C268.368 299.18 246.687 309.03 238.513 326.547C230.339 344.063 238.766 362.612 257.337 367.977Z" fill="#F8F3EF"/>
<path fill-rule="evenodd" clip-rule="evenodd" d="M287.228 304.629C287.132 304.6 287.036 304.572 286.939 304.544C268.368 299.18 246.687 309.03 238.513 326.547C230.339 344.063 238.766 362.612 257.337 367.977C275.908 373.342 297.589 363.491 305.763 345.975C308.096 340.974 309.077 335.89 308.854 331.052L271.326 338.703L287.228 304.629Z" fill="#5F72A5"/>
<path d="M261.566 358.915C274.83 362.747 290.317 355.711 296.156 343.199C301.995 330.688 295.975 317.438 282.71 313.606C269.445 309.774 253.959 316.811 248.12 329.322C242.281 341.834 248.301 355.083 261.566 358.915Z" fill="#F8F3EF"/>
<path d="M465.443 335.545L375.136 309.457C370.891 308.23 365.936 310.482 364.067 314.486L301.48 448.601C299.612 452.605 301.538 456.844 305.783 458.071L396.09 484.159C400.335 485.386 405.29 483.134 407.159 479.13L469.746 345.015C471.614 341.011 469.688 336.772 465.443 335.545Z" fill="white"/>
<path d="M590.336 371.625L500.029 345.537C495.784 344.31 490.828 346.562 488.96 350.566L426.373 484.681C424.504 488.685 426.431 492.925 430.676 494.151L520.983 520.239C525.227 521.466 530.183 519.214 532.051 515.21L594.638 381.095C596.507 377.091 594.581 372.852 590.336 371.625Z" fill="white"/>
<path d="M255.98 334.682C256.489 333.591 257.528 332.869 258.669 332.781C258.047 332.184 257.924 331.4 258.333 330.525C259.049 328.989 261.006 328.36 263.145 328.978C265.284 329.596 266.224 331.048 265.49 332.621C265.081 333.496 264.324 334.04 263.343 334.146C264.173 334.789 264.39 335.859 263.881 336.95C263.058 338.714 261.004 339.387 258.583 338.688C256.162 337.989 255.157 336.446 255.98 334.682ZM260.202 331.295C259.906 331.929 260.341 332.501 261.323 332.785C262.304 333.068 263.107 332.854 263.403 332.22C263.705 331.573 263.275 330.988 262.294 330.704C261.312 330.421 260.504 330.648 260.202 331.295ZM258.184 335.161C257.829 335.922 258.294 336.56 259.424 336.886C260.554 337.213 261.433 336.963 261.789 336.202C262.144 335.441 261.671 334.786 260.555 334.463C259.438 334.141 258.539 334.399 258.184 335.161ZM265.489 335.212C266.845 332.307 269.523 330.82 272.119 331.57C274.715 332.32 275.534 334.817 274.178 337.722C272.822 340.628 270.308 342.09 267.578 341.301C264.848 340.512 264.134 338.117 265.489 335.212ZM267.641 335.834C266.7 337.851 267.033 339.099 268.419 339.499C269.804 339.9 271.085 339.118 272.026 337.101C272.997 335.02 272.664 333.772 271.278 333.372C269.893 332.972 268.612 333.753 267.641 335.834ZM281.214 337.092C280.516 338.589 278.908 339.319 277.334 338.864C275.761 338.41 275.136 337.034 275.834 335.537C276.533 334.04 278.141 333.31 279.714 333.765C281.288 334.219 281.913 335.595 281.214 337.092ZM288.013 336.392L276.084 343.571L274.053 342.984L285.982 335.805L288.013 336.392ZM279.6 336.625C279.896 335.991 279.673 335.423 279.028 335.236C278.382 335.05 277.744 335.369 277.448 336.004C277.152 336.638 277.376 337.206 278.021 337.393C278.667 337.579 279.304 337.26 279.6 336.625ZM286.276 343.809C285.578 345.306 283.97 346.036 282.396 345.582C280.822 345.127 280.198 343.752 280.896 342.255C281.595 340.758 283.202 340.027 284.776 340.482C286.35 340.936 286.975 342.312 286.276 343.809ZM284.662 343.343C284.958 342.708 284.735 342.14 284.089 341.953C283.444 341.767 282.806 342.086 282.51 342.721C282.214 343.355 282.437 343.924 283.083 344.11C283.729 344.297 284.366 343.977 284.662 343.343Z" fill="#2D3958"/>
</g>
<path d="M666.103 211.496L325.13 112.993C320.865 111.761 315.886 114.023 314.009 118.046L252.3 250.279C250.422 254.302 252.358 258.562 256.623 259.794L597.595 358.297C601.86 359.53 606.84 357.267 608.717 353.244L670.426 221.011C672.303 216.988 670.368 212.728 666.103 211.496Z" fill="white"/>
<path d="M324.714 136.564L323.264 136.145L325.848 130.609L327.178 130.993L326.994 131.678C327.506 131.304 328.267 131.117 329.11 131.361C330.002 131.618 330.426 132.211 330.436 132.939C331.032 132.387 331.914 132.171 332.805 132.428C334.231 132.84 334.638 133.873 334.042 135.151L332.353 138.77L330.916 138.355L332.437 135.094C332.809 134.299 332.551 133.754 331.862 133.555C331.161 133.352 330.428 133.623 330.004 134.531L328.54 137.669L327.09 137.25L328.617 133.978C328.978 133.205 328.732 132.663 328.043 132.464C327.354 132.265 326.597 132.529 326.178 133.426L324.714 136.564ZM334.491 136.234C335.297 134.509 337.169 133.702 338.987 134.227C340.804 134.752 341.569 136.321 340.764 138.046C339.958 139.772 338.085 140.579 336.267 140.054C334.45 139.529 333.686 137.96 334.491 136.234ZM335.94 136.653C335.469 137.662 335.839 138.544 336.837 138.832C337.836 139.121 338.843 138.636 339.314 137.628C339.785 136.619 339.415 135.737 338.417 135.448C337.419 135.16 336.411 135.644 335.94 136.653ZM341.827 141.508L340.379 141.089L342.962 135.553L344.304 135.941L344.089 136.693C344.718 136.238 345.583 136.119 346.378 136.349C347.852 136.775 348.209 137.857 347.54 139.292L345.95 142.698L344.501 142.28L345.939 139.198C346.373 138.268 346.095 137.679 345.347 137.463C344.455 137.205 343.637 137.63 343.218 138.527L341.827 141.508ZM349.133 143.618L347.683 143.199L349.733 138.806L348.604 138.48L349.138 137.337L350.266 137.663L351.072 135.938L352.521 136.356L351.716 138.082L352.856 138.412L352.323 139.555L351.183 139.225L349.133 143.618ZM352.386 144.558L350.937 144.139L354.828 135.802L356.289 136.224L354.647 139.743C355.266 139.311 356.117 139.163 356.96 139.406C358.41 139.825 358.768 140.908 358.099 142.342L356.509 145.749L355.059 145.33L356.497 142.248C356.932 141.318 356.654 140.729 355.917 140.516C355.002 140.252 354.185 140.703 353.798 141.532L352.386 144.558ZM359.157 146.514L357.719 146.098L361.609 137.761L363.048 138.176L359.157 146.514ZM358.731 149.303L359.264 148.16L360.132 148.41C360.701 148.575 361.115 148.555 361.668 147.977L362.028 147.61L362.357 141.156L363.89 141.599L363.516 146.069L366.99 142.495L368.487 142.927L362.454 148.865C361.533 149.769 360.717 150.016 359.754 149.738C359.35 149.622 359.015 149.474 358.731 149.303ZM369.788 147.677L371.165 148.075C370.953 148.561 371.192 148.973 371.857 149.165C372.534 149.361 373.022 149.21 373.211 148.806C373.341 148.526 373.282 148.28 372.811 148.017L371.864 147.476C370.91 146.946 370.619 146.328 371.032 145.443C371.539 144.356 372.817 143.987 374.171 144.378C375.491 144.76 376.046 145.734 375.557 146.813L374.178 146.415C374.386 145.941 374.195 145.542 373.636 145.381C373.066 145.216 372.619 145.367 372.425 145.782C372.279 146.095 372.446 146.373 372.892 146.629L373.84 147.17C374.727 147.667 375.027 148.237 374.629 149.089C374.106 150.209 372.772 150.613 371.323 150.194C369.862 149.772 369.28 148.764 369.788 147.677ZM373.519 153.575L377.3 145.473L378.642 145.861L378.345 146.729C378.999 146.193 379.944 146.046 380.835 146.303C382.486 146.781 383.052 148.228 382.241 149.965C381.436 151.691 379.852 152.658 378.105 152.153C377.226 151.899 376.618 151.355 376.511 150.688L374.969 153.994L373.519 153.575ZM377.469 148.663C377.004 149.66 377.338 150.533 378.336 150.821C379.358 151.116 380.288 150.596 380.748 149.61C381.209 148.624 380.932 147.743 379.911 147.448C378.912 147.16 377.935 147.666 377.469 148.663ZM384.392 153.969C382.645 153.465 381.981 151.912 382.781 150.198C383.592 148.461 385.351 147.608 387.075 148.106C388.833 148.614 389.432 150.046 388.626 151.772L388.433 152.186L384.008 150.921C383.66 151.927 383.976 152.578 384.939 152.856C385.735 153.085 386.393 152.945 386.806 152.467L388.148 152.854C387.334 153.993 385.924 154.412 384.392 153.969ZM386.563 149.23C385.708 148.983 384.981 149.269 384.452 150.057L387.398 150.908C387.754 150.146 387.431 149.481 386.563 149.23ZM389.659 155.326L388.21 154.907L390.793 149.371L392.136 149.759L391.92 150.51C392.55 150.057 393.415 149.938 394.21 150.167C395.684 150.593 396.041 151.676 395.372 153.11L393.782 156.517L392.333 156.098L393.771 153.016C394.205 152.086 393.927 151.497 393.178 151.281C392.287 151.024 391.469 151.448 391.051 152.345L389.659 155.326ZM397.313 157.702C395.613 157.211 395.106 155.729 395.906 154.014C396.711 152.289 398.356 151.365 400.125 151.876C400.945 152.113 401.518 152.647 401.63 153.303L403.267 149.795L404.704 150.21L400.813 158.548L399.483 158.164L399.791 157.273C399.137 157.809 398.203 157.959 397.313 157.702ZM398.218 156.539C399.229 156.831 400.201 156.336 400.667 155.339C401.132 154.342 400.803 153.458 399.792 153.166C398.783 152.874 397.836 153.402 397.375 154.388C396.915 155.374 397.209 156.248 398.218 156.539ZM405.913 152.48C405.413 152.336 405.194 151.853 405.408 151.393C405.623 150.934 406.182 150.688 406.681 150.833C407.156 150.97 407.382 151.442 407.167 151.901C406.953 152.361 406.387 152.617 405.913 152.48ZM402.086 158.916L404.67 153.38L406.119 153.799L403.536 159.334L402.086 158.916ZM406.245 160.117L404.796 159.699L407.38 154.163L408.722 154.55L408.506 155.302C409.136 154.848 410 154.729 410.797 154.959C412.27 155.385 412.627 156.467 411.957 157.901L410.368 161.308L408.919 160.89L410.357 157.808C410.791 156.878 410.513 156.289 409.765 156.073C408.873 155.815 408.055 156.24 407.636 157.136L406.245 160.117ZM412.571 158.664C413.324 157.05 415.006 156.162 416.681 156.646C417.56 156.9 418.087 157.447 418.154 158.14L418.593 157.402L419.935 157.79L417.483 163.046C416.62 164.895 414.905 165.709 413.004 165.16C411.317 164.673 410.589 163.432 411.1 161.901L412.55 162.32C412.31 163.065 412.694 163.659 413.585 163.916C414.583 164.204 415.502 163.796 415.93 162.877L416.359 161.958C415.751 162.367 414.874 162.483 414.03 162.239C412.367 161.759 411.823 160.266 412.571 158.664ZM414.048 159.052C413.614 159.982 413.92 160.859 414.87 161.134C415.868 161.422 416.794 160.939 417.244 159.976C417.683 159.034 417.381 158.209 416.371 157.917C415.408 157.639 414.471 158.144 414.048 159.052Z" fill="#2D3958"/>
<path d="M272.38 243.363L599.096 337.747" stroke="#2D3958" stroke-width="3.0916" stroke-linecap="round"/>
<path d="M312.244 159.025L638.069 253.153" stroke="#D0D0D0" stroke-width="0.927481" stroke-linecap="round" stroke-dasharray="3.09 3.09"/>
<path d="M285.834 215.617L611.66 309.744" stroke="#D0D0D0" stroke-width="0.927481" stroke-linecap="round" stroke-dasharray="3.09 3.09"/>
<path d="M298.647 188.161L624.472 282.288" stroke="#D0D0D0" stroke-width="0.927481" stroke-linecap="round" stroke-dasharray="3.09 3.09"/>
<path d="M289.88 229.904C301.134 234.562 313.168 238.024 325.455 240.181C334.215 241.718 340.484 233.632 346.799 229.349C352.217 225.674 359.014 224.075 365.39 223.659C369.401 223.398 374.153 222.404 377.96 223.282C383.869 224.647 390.052 225.44 395.984 227.154C400.61 228.49 405.148 230.469 409.578 231.749C420.758 234.979 432.376 237.667 443.417 240.856C445.557 241.475 447.823 241.916 450.146 241.612C453.365 241.192 456.777 242.169 459.766 241.571C461.877 241.149 464.584 241.083 466.76 240.92C469.329 240.726 472.263 239.612 474.927 239.27C480.71 238.528 486.577 239.296 491.938 240.845C496.744 242.233 502.836 246.488 508.263 246.08C512.052 245.796 515.112 245.399 518.923 244.484C521.072 243.967 523.267 242.368 525.493 241.705C527.794 241.019 530.326 240.695 532.648 240.284C538.271 239.288 545.438 241.428 550.97 241.828C556.937 242.259 563.179 242.524 569.151 243.257C576.39 244.145 583.746 247.325 590.606 249.307C592.673 249.904 596.816 249.375 599.193 249.115C600.457 248.978 599.962 248.002 601.684 248.499C602.829 248.83 603.973 249.16 605.117 249.491" stroke="#5F72A5" stroke-width="1.85496" stroke-linecap="round"/>
<path d="M604.327 252.147C605.803 252.574 607.526 251.791 608.176 250.398C608.826 249.006 608.156 247.531 606.68 247.105C605.204 246.678 603.48 247.461 602.83 248.854C602.18 250.246 602.85 251.721 604.327 252.147Z" fill="#5F72A5"/>
</g>
</g>
<defs>
<filter id="filter0_ddddd_147_237" x="440.099" y="143.064" width="483.492" height="702.762" filterUnits="userSpaceOnUse" color-interpolation-filters="sRGB">
<feFlood flood-opacity="0" result="BackgroundImageFix"/>
<feColorMatrix in="SourceAlpha" type="matrix" values="0 0 0 0 0 0 0 0 0 0 0 0 0 0 0 0 0 0 127 0" result="hardAlpha"/>
<feOffset/>
<feColorMatrix type="matrix" values="0 0 0 0 0 0 0 0 0 0 0 0 0 0 0 0 0 0 0.1 0"/>
<feBlend mode="normal" in2="BackgroundImageFix" result="effect1_dropShadow_147_237"/>
<feColorMatrix in="SourceAlpha" type="matrix" values="0 0 0 0 0 0 0 0 0 0 0 0 0 0 0 0 0 0 127 0" result="hardAlpha"/>
<feOffset dy="12"/>
<feGaussianBlur stdDeviation="13"/>
<feColorMatrix type="matrix" values="0 0 0 0 0 0 0 0 0 0 0 0 0 0 0 0 0 0 0.1 0"/>
<feBlend mode="normal" in2="effect1_dropShadow_147_237" result="effect2_dropShadow_147_237"/>
<feColorMatrix in="SourceAlpha" type="matrix" values="0 0 0 0 0 0 0 0 0 0 0 0 0 0 0 0 0 0 127 0" result="hardAlpha"/>
<feOffset dy="47"/>
<feGaussianBlur stdDeviation="23.5"/>
<feColorMatrix type="matrix" values="0 0 0 0 0 0 0 0 0 0 0 0 0 0 0 0 0 0 0.09 0"/>
<feBlend mode="normal" in2="effect2_dropShadow_147_237" result="effect3_dropShadow_147_237"/>
<feColorMatrix in="SourceAlpha" type="matrix" values="0 0 0 0 0 0 0 0 0 0 0 0 0 0 0 0 0 0 127 0" result="hardAlpha"/>
<feOffset dy="105"/>
<feGaussianBlur stdDeviation="31.5"/>
<feColorMatrix type="matrix" values="0 0 0 0 0 0 0 0 0 0 0 0 0 0 0 0 0 0 0.05 0"/>
<feBlend mode="normal" in2="effect3_dropShadow_147_237" result="effect4_dropShadow_147_237"/>
<feColorMatrix in="SourceAlpha" type="matrix" values="0 0 0 0 0 0 0 0 0 0 0 0 0 0 0 0 0 0 127 0" result="hardAlpha"/>
<feOffset dy="187"/>
<feGaussianBlur stdDeviation="37.5"/>
<feColorMatrix type="matrix" values="0 0 0 0 0 0 0 0 0 0 0 0 0 0 0 0 0 0 0.01 0"/>
<feBlend mode="normal" in2="effect4_dropShadow_147_237" result="effect5_dropShadow_147_237"/>
<feBlend mode="normal" in="SourceGraphic" in2="effect5_dropShadow_147_237" result="shape"/>
</filter>
<filter id="filter1_ddddd_147_237" x="72.3066" y="38.485" width="718.493" height="770.094" filterUnits="userSpaceOnUse" color-interpolation-filters="sRGB">
<feFlood flood-opacity="0" result="BackgroundImageFix"/>
<feColorMatrix in="SourceAlpha" type="matrix" values="0 0 0 0 0 0 0 0 0 0 0 0 0 0 0 0 0 0 127 0" result="hardAlpha"/>
<feOffset/>
<feColorMatrix type="matrix" values="0 0 0 0 0 0 0 0 0 0 0 0 0 0 0 0 0 0 0.1 0"/>
<feBlend mode="normal" in2="BackgroundImageFix" result="effect1_dropShadow_147_237"/>
<feColorMatrix in="SourceAlpha" type="matrix" values="0 0 0 0 0 0 0 0 0 0 0 0 0 0 0 0 0 0 127 0" result="hardAlpha"/>
<feOffset dy="12"/>
<feGaussianBlur stdDeviation="13"/>
<feColorMatrix type="matrix" values="0 0 0 0 0 0 0 0 0 0 0 0 0 0 0 0 0 0 0.1 0"/>
<feBlend mode="normal" in2="effect1_dropShadow_147_237" result="effect2_dropShadow_147_237"/>
<feColorMatrix in="SourceAlpha" type="matrix" values="0 0 0 0 0 0 0 0 0 0 0 0 0 0 0 0 0 0 127 0" result="hardAlpha"/>
<feOffset dy="47"/>
<feGaussianBlur stdDeviation="23.5"/>
<feColorMatrix type="matrix" values="0 0 0 0 0 0 0 0 0 0 0 0 0 0 0 0 0 0 0.09 0"/>
<feBlend mode="normal" in2="effect2_dropShadow_147_237" result="effect3_dropShadow_147_237"/>
<feColorMatrix in="SourceAlpha" type="matrix" values="0 0 0 0 0 0 0 0 0 0 0 0 0 0 0 0 0 0 127 0" result="hardAlpha"/>
<feOffset dy="105"/>
<feGaussianBlur stdDeviation="31.5"/>
<feColorMatrix type="matrix" values="0 0 0 0 0 0 0 0 0 0 0 0 0 0 0 0 0 0 0.05 0"/>
<feBlend mode="normal" in2="effect3_dropShadow_147_237" result="effect4_dropShadow_147_237"/>
<feColorMatrix in="SourceAlpha" type="matrix" values="0 0 0 0 0 0 0 0 0 0 0 0 0 0 0 0 0 0 127 0" result="hardAlpha"/>
<feOffset dy="187"/>
<feGaussianBlur stdDeviation="37.5"/>
<feColorMatrix type="matrix" values="0 0 0 0 0 0 0 0 0 0 0 0 0 0 0 0 0 0 0.01 0"/>
<feBlend mode="normal" in2="effect4_dropShadow_147_237" result="effect5_dropShadow_147_237"/>
<feBlend mode="normal" in="SourceGraphic" in2="effect5_dropShadow_147_237" result="shape"/>
</filter>
<clipPath id="clip0_147_237">
<rect width="710" height="450" rx="28" transform="matrix(0.960714 0.27754 -0.422886 0.906183 190.299 0)" fill="white"/>
</clipPath>
</defs>
</svg>
